<svg xmlns="http://www.w3.org/2000/svg" xmlns:xlink="http://www.w3.org/1999/xlink" viewBox="0 0 161.62 28.61"><defs><style>.cls-1{fill:none;}.cls-2{clip-path:url(#clip-path);}.cls-3{fill:#231f20;}.cls-4{fill:#b81237;}.cls-5{fill:#fff;}</style><clipPath id="clip-path"><rect class="cls-1" width="161.62" height="28.61"/></clipPath></defs><title>Stony Brook Medicine logo</title><g class="cls-2"><path class="cls-3" d="M30.47,18.84H30l-.07-4.13h.58c.43,2.35,1.63,3.58,3.46,3.58,1.55,0,2.41-.79,2.41-2a1.61,1.61,0,0,0-.63-1.36,8.09,8.09,0,0,0-2.34-.78C31.1,13.49,30,12.92,30,11a2.79,2.79,0,0,1,3-2.92,3.89,3.89,0,0,1,2.67,1l.55-.85h.53L37,12h-.56c-.54-2.13-1.67-3.2-3.35-3.2-1.26,0-2,.63-2,1.73,0,1.37,1.07,1.53,3,2a5.55,5.55,0,0,1,2.54,1.07,2.93,2.93,0,0,1,.87,2.2c0,2-1.26,3.15-3.54,3.15a4.07,4.07,0,0,1-2.84-1.07Z"/><path class="cls-3" d="M37.59,12.69v-.57C38.76,12,39.43,11,39.5,9.17h.6v2.89h2.06v.63H40v4.13c0,.81.16,1.21.84,1.21s1.14-.63,1.19-1.94h.53v.19c0,1.72-.79,2.64-2.23,2.64s-1.63-.63-1.63-2V12.69Z"/><path class="cls-3" d="M46.18,11.84c1.89,0,3.2,1.41,3.2,3.54a3.22,3.22,0,1,1-6.41,0,3.22,3.22,0,0,1,3.21-3.54m0,6.48c1.25,0,1.75-.93,1.75-2.94s-.5-3-1.74-3-1.74.94-1.74,3,.51,2.94,1.73,2.94"/><path class="cls-3" d="M49.72,18.07l.62,0c.39,0,.47-.12.47-.53V13.18c0-.47-.17-.57-.79-.57h-.43v-.56L52,11.89v1.37a2.68,2.68,0,0,1,2.34-1.37,2,2,0,0,1,2.16,2.29v3.34c0,.41.09.51.47.53l.62,0v.6H54.16v-.6l.61,0c.38,0,.48-.12.48-.53v-3.4a1.21,1.21,0,0,0-1.32-1.34c-1.2,0-1.82.8-1.82,2.38v2.36c0,.4,0,.51.47.53l.6,0v.6H49.72Z"/><path class="cls-3" d="M58.31,13.28a1.11,1.11,0,0,0-.32-.46,1.49,1.49,0,0,0-.78-.16v-.6h3.33v.6h-.36c-.41,0-.57.05-.57.3a1.61,1.61,0,0,0,.15.45l1.51,3.48,1.43-3.43a1,1,0,0,0,.07-.31c0-.4-.29-.47-1-.49v-.6h2.75v.6a1.08,1.08,0,0,0-1.07.77L61,19c-.74,1.73-1.53,2.6-2.77,2.6-.84,0-1.31-.43-1.31-1.1a.82.82,0,0,1,.85-.84.68.68,0,0,1,.75.7,1,1,0,0,1-.12.41c0,.1.09.16.26.16.46,0,1.17-.76,1.78-2.24l.1-.23Z"/><path class="cls-3" d="M67.09,18h.74c.57,0,.76-.13.76-.68V9.72c0-.55-.19-.68-.76-.68h-.74V8.37h5.4c2,0,3.08.88,3.08,2.51,0,1.23-.8,2-2.4,2.38,2,.26,2.93,1.13,2.93,2.64,0,1.73-1.34,2.77-3.78,2.77H67.09Zm3-5h1.14c1.84,0,2.65-.43,2.65-2s-.64-2-2.18-2h-.9c-.58,0-.71.14-.71.63Zm0,4.31c0,.53.14.67.78.67h1c1.69,0,2.44-.6,2.44-2.14s-.9-2.21-3-2.21H70.12Z"/><path class="cls-3" d="M79.41,18.05l.87,0v.6H76.53v-.6l.67,0c.4,0,.47-.13.47-.53V13.18c0-.5-.19-.56-.86-.56h-.43v-.56l2.49-.17v2c.44-1.36,1.17-2.06,2.08-2.06a1.22,1.22,0,0,1,1.3,1.21.83.83,0,0,1-.83.89.77.77,0,0,1-.84-.81.75.75,0,0,1,.28-.62h-.08c-.9,0-1.84,1.36-1.84,3.47v1.53c0,.4.07.51.47.53"/><path class="cls-3" d="M85.63,11.84c1.89,0,3.2,1.41,3.2,3.54a3.22,3.22,0,1,1-6.41,0,3.22,3.22,0,0,1,3.21-3.54m0,6.48c1.25,0,1.75-.93,1.75-2.94s-.5-3-1.74-3-1.74.94-1.74,3,.51,2.94,1.73,2.94"/><path class="cls-3" d="M92.68,11.84c1.89,0,3.2,1.41,3.2,3.54a3.22,3.22,0,1,1-6.41,0,3.22,3.22,0,0,1,3.21-3.54m0,6.48c1.25,0,1.75-.93,1.75-2.94s-.5-3-1.74-3-1.74.94-1.74,3,.51,2.94,1.73,2.94"/><path class="cls-3" d="M95.91,18.07l.64,0c.4,0,.49-.13.49-.53V9.39c0-.47-.18-.57-.79-.57l-.41,0V8.28l2.49-.17v7.07l2.2-2a.57.57,0,0,0,.17-.31c0-.19-.23-.24-.72-.24h-.46v-.55h3.65v.55h-.08a3.07,3.07,0,0,0-2.21,1.11l-.73.67,2.24,3a1.58,1.58,0,0,0,1.41.7v.6h-3.68v-.6l.43,0c.33,0,.5-.05.5-.22a.48.48,0,0,0-.13-.28L99.2,15.23l-.87.77v1.52c0,.41.09.51.49.53l.63,0v.6H95.91Z"/><path class="cls-4" d="M109.45,16.23c0,1.36.3,1.82,1.7,1.83v.61H107v-.61c1.44,0,1.71-.49,1.71-1.83V9.72c0-.55-.18-.68-.75-.68h-.84V8.37h3.56l2.77,7.88,2.69-7.88h3.48V9h-.76c-.57,0-.74.13-.74.68v7.6c0,.55.17.68.74.68h.76v.67H115V18h.85c.57,0,.76-.13.76-.68v-8l-3.2,9.39h-.56l-3.41-9.39Z"/><path class="cls-4" d="M120.87,15.76c0,1.52.77,2.39,1.9,2.39A2.48,2.48,0,0,0,125,16.6l.5.29a3.15,3.15,0,0,1-3,2c-1.8,0-3.1-1.38-3.1-3.52s1.28-3.54,3.1-3.54,3,1.27,3,3.38v.26h-4.66c0,.1,0,.18,0,.28m2.68-.9c.37,0,.5-.08.5-.45,0-1.3-.54-2-1.51-2s-1.61.81-1.64,2.45Z"/><path class="cls-4" d="M129,18.87c-1.61,0-2.87-1.38-2.87-3.49s1.3-3.54,2.9-3.54a2.28,2.28,0,0,1,2,1V9.4c0-.5-.2-.56-.88-.56h-.5V8.28l2.7-.17v9.35c0,.5.15.6.75.6h.33v.61l-2.31.16V17.62a2.39,2.39,0,0,1-2.1,1.25m.31-.78c1.22,0,1.7-.9,1.7-2.74s-.47-2.73-1.71-2.73-1.7.89-1.7,2.73.47,2.74,1.71,2.74"/><path class="cls-4" d="M133.84,18.07l.69,0c.4,0,.49-.13.49-.53V13.18c0-.47-.18-.57-.79-.57h-.41v-.56l2.49-.17v5.63c0,.41.09.51.49.53l.63,0v.6h-3.59Zm2.65-8.87a.85.85,0,1,1-.86-.85.85.85,0,0,1,.86.85"/><path class="cls-4" d="M140.58,18.9a3.1,3.1,0,0,1-3.1-3.41c0-2.21,1.36-3.65,3.32-3.65,1.39,0,2.29.75,2.29,1.64a.94.94,0,0,1-1,1,.78.78,0,0,1-.84-.79c0-.54.44-.64.44-.84s-.36-.47-1-.47c-1.19,0-1.79.95-1.79,2.85s.65,2.77,2,2.77a1.9,1.9,0,0,0,1.83-1.45l.51.25a2.67,2.67,0,0,1-2.68,2.07"/><path class="cls-4" d="M143.63,18.07l.69,0c.4,0,.49-.13.49-.53V13.18c0-.47-.18-.57-.79-.57h-.41v-.56l2.49-.17v5.63c0,.41.09.51.49.53l.63,0v.6h-3.59Zm2.65-8.87a.85.85,0,1,1-.86-.85.85.85,0,0,1,.86.85"/><path class="cls-4" d="M147.69,18.07l.61,0c.4,0,.47-.12.47-.53V13.18c0-.47-.17-.57-.78-.57h-.43v-.56l2.44-.17v1.37a2.67,2.67,0,0,1,2.34-1.37,2,2,0,0,1,2.16,2.29v3.34c0,.41.08.51.47.53l.61,0v.6h-3.45v-.6l.61,0c.37,0,.47-.12.47-.53v-3.4a1.2,1.2,0,0,0-1.31-1.34c-1.2,0-1.83.8-1.83,2.38v2.36c0,.4.06.51.47.53l.6,0v.6h-3.45Z"/><path class="cls-4" d="M157,15.76c0,1.52.77,2.39,1.9,2.39a2.47,2.47,0,0,0,2.27-1.55l.5.29a3.15,3.15,0,0,1-3,2c-1.8,0-3.1-1.38-3.1-3.52s1.29-3.54,3.1-3.54,3,1.27,3,3.38v.26H157c0,.1,0,.18,0,.28m2.69-.9c.37,0,.5-.08.5-.45,0-1.3-.55-2-1.52-2s-1.61.81-1.64,2.45Z"/><path class="cls-5" d="M24.09,3C17.37-1.12,6.79-.87,0,3V13.73A15.5,15.5,0,0,0,8.69,27.4a14.65,14.65,0,0,0,3.36,1.21A14.74,14.74,0,0,0,15.4,27.4a15.5,15.5,0,0,0,8.69-13.67Z"/><path class="cls-4" d="M20.19,23.72,15.12.15l-.64,0,4.26,25.06a16.42,16.42,0,0,0,1.45-1.44"/><path class="cls-4" d="M24.07,14.59,18.21.66,17.53.52,23.74,17a14.66,14.66,0,0,0,.33-2.38"/><path class="cls-4" d="M15.4,27.4c.38-.19.76-.4,1.12-.62L13.62,0h-.69l1.76,27.71c.24-.1.47-.21.71-.33"/><path class="cls-4" d="M22.81,19.7,16.64.35,16,.26l5.85,21.26a15.08,15.08,0,0,0,1-1.82"/><path class="cls-4" d="M24.09,3A19.52,19.52,0,0,0,19.16.91l4.93,10.32Z"/><path class="cls-4" d="M0,3V13.73A15.5,15.5,0,0,0,8.69,27.4a14.65,14.65,0,0,0,3.36,1.21V0A25.3,25.3,0,0,0,0,3M7.45,12.8l.67,2.07L6.36,13.59,4.61,14.87l.67-2.07L3.53,11.53H5.69l.67-2,.67,2H9.19Z"/></g></svg>